<?xml version="1.0" encoding="utf-8"?>
<!-- Generator: Adobe Illustrator 19.0.0, SVG Export Plug-In . SVG Version: 6.00 Build 0)  -->
<svg version="1.1" id="Layer_1" xmlns="http://www.w3.org/2000/svg" xmlns:xlink="http://www.w3.org/1999/xlink" x="0px" y="0px"
	 viewBox="-283 375 44 44" style="enable-background:new -283 375 44 44;" xml:space="preserve">
<style type="text/css">
	.st0{enable-background:new    ;}
	.st1{clip-path:url(#SVGID_2_);}
	.st2{clip-path:url(#SVGID_4_);}
	.st3{clip-path:url(#SVGID_6_);}
	.st4{clip-path:url(#SVGID_8_);}
	.st5{clip-path:url(#SVGID_10_);fill-rule:evenodd;clip-rule:evenodd;fill:#64D08F;}
	.st6{clip-path:url(#SVGID_12_);}
	.st7{clip-path:url(#SVGID_14_);}
	.st8{clip-path:url(#SVGID_16_);fill:none;stroke:#64D08F;stroke-width:4;stroke-miterlimit:10;}
	.st9{fill:#FFFFFF;}
	.st10{clip-path:url(#SVGID_18_);}
	.st11{clip-path:url(#SVGID_20_);}
	.st12{clip-path:url(#SVGID_22_);}
	.st13{clip-path:url(#SVGID_24_);fill:none;stroke:#70C38D;stroke-width:4;stroke-miterlimit:10;}
</style>
<g class="st0">
	<g>
		<defs>
			<rect id="SVGID_1_" x="-279" y="379.5" width="36" height="35"/>
		</defs>
		<clipPath id="SVGID_2_">
			<use xlink:href="#SVGID_1_"  style="overflow:visible;"/>
		</clipPath>
		<g class="st1">
			<defs>
				<rect id="SVGID_3_" x="-783" y="116.5" width="1366" height="787"/>
			</defs>
			<clipPath id="SVGID_4_">
				<use xlink:href="#SVGID_3_"  style="overflow:visible;"/>
			</clipPath>
			<g class="st2">
				<defs>
					<path id="SVGID_5_" d="M-260.5,409h-0.9l10.9,5.8l1.8,1l-0.3-2l-2.1-12.4l-0.3,0.9l8.8-8.8l1.4-1.4l-2-0.3l-12.2-1.8l0.8,0.6
						l-5.4-11.3l-0.9-1.9l-0.9,1.9l-5.4,11.3l0.8-0.6l-12.2,1.8l-2,0.3l1.4,1.4l8.8,8.8l-0.3-0.9l-2.1,12.4l-0.3,2l1.8-1L-260.5,409
						z M-261.5,407.3l-10.9,5.8l1.5,1l2.1-12.4l0.1-0.5l-0.4-0.4l-8.8-8.8l-0.6,1.7l12.2-1.8l0.5-0.1l0.2-0.5l5.4-11.3h-1.8
						l5.4,11.3l0.2,0.5l0.5,0.1l12.2,1.8l-0.6-1.7l-8.8,8.8l-0.4,0.4l0.1,0.5l2.1,12.4l1.5-1l-10.9-5.8l-0.5-0.3L-261.5,407.3z
						 M-300.7,357.5h79.4v78.4h-79.4V357.5z"/>
				</defs>
				<clipPath id="SVGID_6_">
					<use xlink:href="#SVGID_5_"  style="overflow:visible;"/>
				</clipPath>
				<g class="st3">
					<defs>
						<polygon id="SVGID_7_" points="-261,408.2 -271.9,414 -269.8,401.6 -278.6,392.9 -266.4,391.1 -261,379.8 -255.6,391.1 
							-243.4,392.9 -252.2,401.6 -250.1,414 						"/>
					</defs>
					<clipPath id="SVGID_8_">
						<use xlink:href="#SVGID_7_"  style="overflow:visible;"/>
					</clipPath>
					<g class="st4">
						<defs>
							<rect id="SVGID_9_" x="-279" y="379.5" width="36" height="35"/>
						</defs>
						<clipPath id="SVGID_10_">
							<use xlink:href="#SVGID_9_"  style="overflow:visible;"/>
						</clipPath>
						<polygon class="st5" points="-261,408.2 -271.9,414 -269.8,401.6 -278.6,392.9 -266.4,391.1 -261,379.8 -255.6,391.1 
							-243.4,392.9 -252.2,401.6 -250.1,414 						"/>
					</g>
				</g>
			</g>
		</g>
		<g class="st1">
			<defs>
				<rect id="SVGID_11_" x="-783" y="116.5" width="1366" height="787"/>
			</defs>
			<clipPath id="SVGID_12_">
				<use xlink:href="#SVGID_11_"  style="overflow:visible;"/>
			</clipPath>
			<g class="st6">
				<defs>
					<polygon id="SVGID_13_" points="-261,408.2 -271.9,414 -269.8,401.6 -278.6,392.9 -266.4,391.1 -261,379.8 -255.6,391.1 
						-243.4,392.9 -252.2,401.6 -250.1,414 					"/>
				</defs>
				<clipPath id="SVGID_14_">
					<use xlink:href="#SVGID_13_"  style="overflow:visible;"/>
				</clipPath>
				<g class="st7">
					<defs>
						<rect id="SVGID_15_" x="-279" y="379.5" width="36" height="35"/>
					</defs>
					<clipPath id="SVGID_16_">
						<use xlink:href="#SVGID_15_"  style="overflow:visible;"/>
					</clipPath>
					<polygon class="st8" points="-261,408.2 -271.9,414 -269.8,401.6 -278.6,392.9 -266.4,391.1 -261,379.8 -255.6,391.1 
						-243.4,392.9 -252.2,401.6 -250.1,414 					"/>
				</g>
			</g>
		</g>
	</g>
</g>
<g>
	<g>
		<g>
			<rect x="-566" y="750" class="st9" width="44" height="44"/>
			<g>
				<g>
					<defs>
						<rect id="SVGID_17_" x="-562" y="754.5" width="36" height="35"/>
					</defs>
					<clipPath id="SVGID_18_">
						<use xlink:href="#SVGID_17_"  style="overflow:visible;"/>
					</clipPath>
					<g class="st10">
						<g>
							<g>
								<defs>
									<rect id="SVGID_19_" x="-1238" y="425.5" width="1366" height="787"/>
								</defs>
								<clipPath id="SVGID_20_">
									<use xlink:href="#SVGID_19_"  style="overflow:visible;"/>
								</clipPath>
								<g id="Layer_1_1_" class="st11">
									<g id="XMLID_1_" class="st0">
										<g id="XMLID_15_">
											<defs>
												<polygon id="SVGID_21_" points="-544,783 -554.9,788.8 -552.8,776.6 -561.6,768.1 -549.4,766.3 -544,755.3 
													-538.6,766.3 -526.4,768.1 -535.2,776.6 -533.1,788.8 												"/>
											</defs>
											<clipPath id="SVGID_22_">
												<use xlink:href="#SVGID_21_"  style="overflow:visible;"/>
											</clipPath>
											<g id="XMLID_17_" class="st12">
												<g id="XMLID_19_">
													<g id="XMLID_21_">
														<defs>
															<rect id="SVGID_23_" x="-562" y="754.5" width="36" height="35"/>
														</defs>
														<clipPath id="SVGID_24_">
															<use xlink:href="#SVGID_23_"  style="overflow:visible;"/>
														</clipPath>
														<polygon id="XMLID_23_" class="st13" points="-544,783 -554.9,788.8 -552.8,776.6 -561.6,768.1 -549.4,766.3 
															-544,755.3 -538.6,766.3 -526.4,768.1 -535.2,776.6 -533.1,788.8 														"/>
													</g>
												</g>
											</g>
										</g>
									</g>
								</g>
							</g>
						</g>
					</g>
				</g>
			</g>
		</g>
	</g>
</g>
</svg>
