<?xml version="1.0" encoding="utf-8"?>
<!-- Generator: Adobe Illustrator 19.0.0, SVG Export Plug-In . SVG Version: 6.00 Build 0)  -->
<svg version="1.1" id="Layer_1" xmlns="http://www.w3.org/2000/svg" xmlns:xlink="http://www.w3.org/1999/xlink" x="0px" y="0px"
	 viewBox="0 0 316 313.3" style="enable-background:new 0 0 316 313.3;" xml:space="preserve">
<style type="text/css">
	.st0{fill:#39997D;}
	.st1{fill:#47D19C;}
	.st2{fill:#FFFFFF;}
</style>
<path class="st0" d="M82,251.9c10,11.1,24,17.1,38.2,22.8c2.3,0.8,4.7,1.5,7.1,2.2c9.9,2.7,21.3,4.4,34.3,4.1
	c2.7-0.1,5.5-0.2,8.4-0.4c34-2.5,64-21.5,84.7-48.7c2.1-2.8,4.2-5.7,6.2-8.6c5.8-8.8,10.1-17.8,9.2-24.2c0,0,6.3-84.5-32.6-111.5
	S97.5,70,92.3,96s-51,105-30.5,123c10.3,9,15.3,17.2,17.8,23.2c0.8,2,1.4,3.7,1.7,5.2C82,250.2,82,251.9,82,251.9"/>
<path class="st1" d="M200,89c0,0,0.2,1.8-0.3,5c-1.6,11-10.6,38.8-57.7,72c0,0-45,33-31,61c0,0-16,6-29-10c0,0,4,30.8,4.4,33
	c4.6,18,8.6,38,21.6,53c-29-4-68.4-54.2-69.7-56c-3.7-5.4-7.5-11.4-11.3-18c0,0-8,11-15,12c0,0,9-28,6-53S9,12,130,8c0,0,35-3,54,9
	c0,0,56.7-6.3,84,26c24.2,28.7,36,51,29,135c0,0,1,39,11,54c0,0-9,0-19-7c0,0-4.3,10.9-12.3,24.8c-1,1.7-2,3.5-3.1,5.3
	C259,276,240,293,216,303c11-22,20-45,25.9-68.9c0.7-2.3,1.2-4.3,1.6-6c0.5-2.4,1-4.7,1.5-7.1c4.8-23.7,7-47.5,2-64.2
	c0,0-34.3-9.5-45.7-58.8L200,89z"/>
<path class="st2" d="M236.5,202c0.4-1.1,2.1-6.1,2.7-13c0.7-7.6,0.2-17.3,0.2-17.3s-38.7-23.3-48.7,12c-0.6,2.2-0.8,6.9-1,8.6
	c-0.4,3.4,0.2,6.4,0.8,9c3.3,15,23.4,13.8,27.4,13.3c0.5-0.1,0.7-0.1,0.7-0.1s8.3-0.4,13.7-6.3C234.8,205.6,235.9,203.9,236.5,202z"
	/>
<path class="st2" d="M197.3,249.7c0,0-9,16-37.7,15.7c0,0-11.3-0.3-26.3-7.8c0,0-8.3-5.2-10.7-7.8
	C122.7,249.7,163.3,257.7,197.3,249.7z"/>
<path class="st0" d="M210.5,195.3c0,0.3,0,0.5,0,0.8s0,0.5-0.1,0.7c0.9,3.2-2.9,6.7-5.5,7.8c-6.4,2.3-8.9-5.8-8.6-12.2
	c0.1-0.4,0.3-0.8,0.5-1.2c2-4.3,6.6-6.8,11.6-2.5c0.3,0.3,0.5,0.7,0.7,1.1C210,191.3,210.5,193.2,210.5,195.3z"/>
</svg>
